  0
SECTION
  2
ENTITIES
999
DXF created from EnergyPlus
999
Program Version,EnergyPlus, Version 26.1.0-6f2e40d102, YMD=2026.07.26 16:25
999
Polygon Action,TRIANGULATE3DFACE
999
Color Scheme,Default
999
Text - True North
  0
TEXT
  8
1
  6
Continuous
 62
  3
 10
      -10.00000
 20
        3.00000
 30
        0.10000
 40
 .25
  1
True North
 41
 0.0
  7
MONOTXT
210
0.0
220
0.0
230
1.0
999
Text - Building Title
  0
TEXT
  8
1
  6
Continuous
 62
  3
 10
      -13.00000
 20
       -1.00000
 30
        0.10000
 40
 .4
  1
Building - BUILDING #1
 41
 0.0
  7
MONOTXT
210
0.0
220
0.0
230
1.0
999
North Arrow Stem
  0
3DFACE
  8
1
 62
  3
 10
       -9.00000
 20
        3.00000
 30
        0.10000
 11
       -9.00000
 21
        3.00000
 31
        0.00000
 12
       -9.00000
 22
       -0.00000
 32
        0.00000
 13
       -9.00000
 23
       -0.00000
 33
        0.10000
999
North Arrow Head 1
  0
3DFACE
  8
1
 62
  3
 10
       -9.00000
 20
        3.00000
 30
        0.10000
 11
       -9.00000
 21
        3.00000
 31
        0.00000
 12
       -9.50000
 22
        2.13397
 32
        0.00000
 13
       -9.50000
 23
        2.13397
 33
        0.10000
999
North Arrow Head 2
  0
3DFACE
  8
1
 62
  3
 10
       -9.00000
 20
        3.00000
 30
        0.10000
 11
       -9.00000
 21
        3.00000
 31
        0.00000
 12
       -8.50000
 22
        2.13397
 32
        0.00000
 13
       -8.50000
 23
        2.13397
 33
        0.10000
999
North Arrow Side 1
  0
3DFACE
  8
1
 62
  3
 10
       -9.50000
 20
        4.50000
 30
        0.10000
 11
       -9.50000
 21
        4.50000
 31
        0.00000
 12
       -9.50000
 22
        3.50000
 32
        0.00000
 13
       -9.50000
 23
        3.50000
 33
        0.10000
999
North Arrow Side 2
  0
3DFACE
  8
1
 62
  3
 10
       -9.50000
 20
        4.50000
 30
        0.10000
 11
       -9.50000
 21
        4.50000
 31
        0.00000
 12
       -8.50000
 22
        3.50000
 32
        0.00000
 13
       -8.50000
 23
        3.50000
 33
        0.10000
999
North Arrow Side 3
  0
3DFACE
  8
1
 62
  3
 10
       -8.50000
 20
        4.50000
 30
        0.10000
 11
       -8.50000
 21
        4.50000
 31
        0.00000
 12
       -8.50000
 22
        3.50000
 32
        0.00000
 13
       -8.50000
 23
        3.50000
 33
        0.10000
999
Zone Names
999
Zone=1:ZONE_1
999
Zone=2:ZONE_2
999
Zone=3:ZONE_3
999
Zone=4:ZONE_4
999
Fixed Shading:BUSHES-SOUTH
  0
3DFACE
  8
Fixed Shading
 62
  9
 10
        1.00000
 20
        0.00000
 30
        1.00000
 11
        1.00000
 21
        0.00000
 31
        0.00000
 12
       51.00000
 22
        0.00000
 32
        0.00000
 13
       51.00000
 23
        0.00000
 33
        1.00000
999
Fixed Shading:Mir-BUSHES-SOUTH
  0
3DFACE
  8
Fixed Shading
 62
  9
 10
       51.00000
 20
        0.00000
 30
        1.00000
 11
       51.00000
 21
        0.00000
 31
        0.00000
 12
        1.00000
 22
        0.00000
 32
        0.00000
 13
        1.00000
 23
        0.00000
 33
        1.00000
999
Fixed Shading:BUSHES-NORTH
  0
3DFACE
  8
Fixed Shading
 62
  9
 10
       51.00000
 20
       50.00000
 30
        1.00000
 11
       51.00000
 21
       50.00000
 31
        0.00000
 12
        1.00000
 22
       50.00000
 32
        0.00000
 13
        1.00000
 23
       50.00000
 33
        1.00000
999
Fixed Shading:Mir-BUSHES-NORTH
  0
3DFACE
  8
Fixed Shading
 62
  9
 10
        1.00000
 20
       50.00000
 30
        1.00000
 11
        1.00000
 21
       50.00000
 31
        0.00000
 12
       51.00000
 22
       50.00000
 32
        0.00000
 13
       51.00000
 23
       50.00000
 33
        1.00000
999
Fixed Shading:BUSHES-WEST
  0
3DFACE
  8
Fixed Shading
 62
  9
 10
        1.00000
 20
       50.00000
 30
        1.00000
 11
        1.00000
 21
       50.00000
 31
        0.00000
 12
        1.00000
 22
        0.00000
 32
        0.00000
 13
        1.00000
 23
        0.00000
 33
        1.00000
999
Fixed Shading:Mir-BUSHES-WEST
  0
3DFACE
  8
Fixed Shading
 62
  9
 10
        1.00000
 20
        0.00000
 30
        1.00000
 11
        1.00000
 21
        0.00000
 31
        0.00000
 12
        1.00000
 22
       50.00000
 32
        0.00000
 13
        1.00000
 23
       50.00000
 33
        1.00000
999
Building Shading:BUSHES-EAST
  0
3DFACE
  8
Building Shading
 62
195
 10
       51.00000
 20
       -0.00000
 30
        1.00000
 11
       51.00000
 21
        0.00000
 31
        0.00000
 12
       51.00000
 22
       50.00000
 32
        0.00000
 13
       51.00000
 23
       50.00000
 33
        1.00000
999
Building Shading:Mir-BUSHES-EAST
  0
3DFACE
  8
Building Shading
 62
195
 10
       51.00000
 20
       50.00000
 30
        1.00000
 11
       51.00000
 21
       50.00000
 31
        0.00000
 12
       51.00000
 22
        0.00000
 32
        0.00000
 13
       51.00000
 23
       -0.00000
 33
        1.00000
999
ZONE 1:ZN001:WALL001
  0
3DFACE
  8
ZONE_1
 62
 43
 10
        6.00000
 20
        6.00000
 30
       10.00000
 11
        6.00000
 21
        6.00000
 31
        0.00000
 12
       26.00000
 22
        6.00000
 32
        0.00000
 13
       26.00000
 23
        6.00000
 33
       10.00000
999
ZONE 1:ZN001:WALL001:WIN001
  0
3DFACE
  8
ZONE_1
 62
143
 10
       10.00000
 20
        6.00000
 30
        8.00000
 11
       10.00000
 21
        6.00000
 31
        3.00000
 12
       13.00000
 22
        6.00000
 32
        3.00000
 13
       13.00000
 23
        6.00000
 33
        8.00000
999
ZONE 1:ZN001:WALL001:DOOR001
  0
3DFACE
  8
ZONE_1
 62
 45
 10
       20.00000
 20
        6.00000
 30
        5.00000
 11
       20.00000
 21
        6.00000
 31
        0.00000
 12
       23.00000
 22
        6.00000
 32
        0.00000
 13
       23.00000
 23
        6.00000
 33
        5.00000
999
ZONE 1:ZN001:WALL002
  0
3DFACE
  8
ZONE_1
 62
 43
 10
       26.00000
 20
       26.00000
 30
       10.00000
 11
       26.00000
 21
       26.00000
 31
        0.00000
 12
        6.00000
 22
       26.00000
 32
        0.00000
 13
        6.00000
 23
       26.00000
 33
       10.00000
999
ZONE 1:ZN001:WALL003
  0
3DFACE
  8
ZONE_1
 62
 43
 10
        6.00000
 20
       26.00000
 30
       10.00000
 11
        6.00000
 21
       26.00000
 31
        0.00000
 12
        6.00000
 22
        6.00000
 32
        0.00000
 13
        6.00000
 23
        6.00000
 33
       10.00000
999
ZONE 1:ZN001:WALL004
  0
3DFACE
  8
ZONE_1
 62
 43
 10
       26.00000
 20
        6.00000
 30
       10.00000
 11
       26.00000
 21
        6.00000
 31
        0.00000
 12
       26.00000
 22
       26.00000
 32
        0.00000
 13
       26.00000
 23
       26.00000
 33
       10.00000
999
ZONE 1:ZN001:FLR001
  0
3DFACE
  8
ZONE_1
 62
  8
 10
       26.00000
 20
        6.00000
 30
        0.00000
 11
        6.00000
 21
        6.00000
 31
        0.00000
 12
        6.00000
 22
       26.00000
 32
        0.00000
 13
       26.00000
 23
       26.00000
 33
        0.00000
999
ZONE 1:ZN001:ROOF001
  0
3DFACE
  8
ZONE_1
 62
 15
 10
        6.00000
 20
       26.00000
 30
       10.00000
 11
        6.00000
 21
        6.00000
 31
       10.00000
 12
       26.00000
 22
        6.00000
 32
       10.00000
 13
       26.00000
 23
       26.00000
 33
       10.00000
999
ZONE 1:ZN001:WALL001:WIN001:SHADE001
  0
3DFACE
  8
ZONE_1
 62
 13
 10
        9.80000
 20
        3.00000
 30
        8.70000
 11
        9.80000
 21
        6.00000
 31
        8.70000
 12
       13.20000
 22
        6.00000
 32
        8.70000
 13
       13.20000
 23
        3.00000
 33
        8.70000
999
ZONE 1:Mir-ZN001:WALL001:WIN001:SHADE001
  0
3DFACE
  8
ZONE_1
 62
 13
 10
       13.20000
 20
        3.00000
 30
        8.70000
 11
       13.20000
 21
        6.00000
 31
        8.70000
 12
        9.80000
 22
        6.00000
 32
        8.70000
 13
        9.80000
 23
        3.00000
 33
        8.70000
999
ZONE 1:ZN001:WALL001:DOOR001:SHADE001
  0
3DFACE
  8
ZONE_1
 62
 13
 10
       20.00000
 20
        3.00000
 30
        5.60000
 11
       20.00000
 21
        6.00000
 31
        5.60000
 12
       23.00000
 22
        6.00000
 32
        5.60000
 13
       23.00000
 23
        3.00000
 33
        5.60000
999
ZONE 1:Mir-ZN001:WALL001:DOOR001:SHADE001
  0
3DFACE
  8
ZONE_1
 62
 13
 10
       23.00000
 20
        3.00000
 30
        5.60000
 11
       23.00000
 21
        6.00000
 31
        5.60000
 12
       20.00000
 22
        6.00000
 32
        5.60000
 13
       20.00000
 23
        3.00000
 33
        5.60000
999
ZONE 1:ZN001:WALL001:SHADE003 Left
  0
3DFACE
  8
ZONE_1
 62
 13
 10
        9.90000
 20
        6.00000
 30
        8.10000
 11
        9.90000
 21
        6.00000
 31
        2.90000
 12
        9.90000
 22
        3.00000
 32
        2.90000
 13
        9.90000
 23
        3.00000
 33
        8.10000
999
ZONE 1:Mir-ZN001:WALL001:SHADE003 Left
  0
3DFACE
  8
ZONE_1
 62
 13
 10
        9.90000
 20
        3.00000
 30
        8.10000
 11
        9.90000
 21
        3.00000
 31
        2.90000
 12
        9.90000
 22
        6.00000
 32
        2.90000
 13
        9.90000
 23
        6.00000
 33
        8.10000
999
ZONE 1:ZN001:WALL001:SHADE003 Right
  0
3DFACE
  8
ZONE_1
 62
 13
 10
       13.10000
 20
        6.00000
 30
        8.10000
 11
       13.10000
 21
        6.00000
 31
        2.90000
 12
       13.10000
 22
        3.00000
 32
        2.90000
 13
       13.10000
 23
        3.00000
 33
        8.10000
999
ZONE 1:Mir-ZN001:WALL001:SHADE003 Right
  0
3DFACE
  8
ZONE_1
 62
 13
 10
       13.10000
 20
        3.00000
 30
        8.10000
 11
       13.10000
 21
        3.00000
 31
        2.90000
 12
       13.10000
 22
        6.00000
 32
        2.90000
 13
       13.10000
 23
        6.00000
 33
        8.10000
999
ZONE 2:ZN002:WALL001
  0
3DFACE
  8
ZONE_2
 62
 43
 10
       26.00000
 20
        6.00000
 30
       10.00000
 11
       26.00000
 21
        6.00000
 31
        0.00000
 12
       46.00000
 22
        6.00000
 32
        0.00000
 13
       46.00000
 23
        6.00000
 33
       10.00000
999
ZONE 2:ZN002:WALL001:WIN001
  0
3DFACE
  8
ZONE_2
 62
143
 10
       30.00000
 20
        6.00000
 30
        8.00000
 11
       30.00000
 21
        6.00000
 31
        3.00000
 12
       33.00000
 22
        6.00000
 32
        3.00000
 13
       33.00000
 23
        6.00000
 33
        8.00000
999
ZONE 2:ZN002:WALL001:WIN002
  0
3DFACE
  8
ZONE_2
 62
143
 10
       36.00000
 20
        6.00000
 30
        8.00000
 11
       36.00000
 21
        6.00000
 31
        3.00000
 12
       39.00000
 22
        6.00000
 32
        3.00000
 13
       39.00000
 23
        6.00000
 33
        8.00000
999
ZONE 2:ZN002:WALL002
  0
3DFACE
  8
ZONE_2
 62
 43
 10
       46.00000
 20
        6.00000
 30
       10.00000
 11
       46.00000
 21
        6.00000
 31
        0.00000
 12
       46.00000
 22
       26.00000
 32
        0.00000
 13
       46.00000
 23
       26.00000
 33
       10.00000
999
ZONE 2:ZN002:WALL002:WIN001
  0
3DFACE
  8
ZONE_2
 62
143
 10
       46.00000
 20
       15.00000
 30
        8.00000
 11
       46.00000
 21
       15.00000
 31
        3.00000
 12
       46.00000
 22
       18.00000
 32
        3.00000
 13
       46.00000
 23
       18.00000
 33
        8.00000
999
ZONE 2:ZN002:WALL003
  0
3DFACE
  8
ZONE_2
 62
 43
 10
       46.00000
 20
       26.00000
 30
       10.00000
 11
       46.00000
 21
       26.00000
 31
        0.00000
 12
       26.00000
 22
       26.00000
 32
        0.00000
 13
       26.00000
 23
       26.00000
 33
       10.00000
999
ZONE 2:ZN002:WALL004
  0
3DFACE
  8
ZONE_2
 62
 43
 10
       26.00000
 20
       26.00000
 30
       10.00000
 11
       26.00000
 21
       26.00000
 31
        0.00000
 12
       26.00000
 22
        6.00000
 32
        0.00000
 13
       26.00000
 23
        6.00000
 33
       10.00000
999
ZONE 2:ZN002:FLR001
  0
3DFACE
  8
ZONE_2
 62
  8
 10
       46.00000
 20
        6.00000
 30
        0.00000
 11
       26.00000
 21
        6.00000
 31
        0.00000
 12
       26.00000
 22
       26.00000
 32
        0.00000
 13
       46.00000
 23
       26.00000
 33
        0.00000
999
ZONE 2:ZN002:ROOF001
  0
3DFACE
  8
ZONE_2
 62
 15
 10
       26.00000
 20
       26.00000
 30
       10.00000
 11
       26.00000
 21
        6.00000
 31
       10.00000
 12
       46.00000
 22
        6.00000
 32
       10.00000
 13
       46.00000
 23
       26.00000
 33
       10.00000
999
ZONE 2:ZN002:WALL001:WIN001:SHADE001
  0
3DFACE
  8
ZONE_2
 62
 13
 10
       30.00000
 20
        3.00000
 30
        8.70000
 11
       30.00000
 21
        6.00000
 31
        8.70000
 12
       33.00000
 22
        6.00000
 32
        8.70000
 13
       33.00000
 23
        3.00000
 33
        8.70000
999
ZONE 2:Mir-ZN002:WALL001:WIN001:SHADE001
  0
3DFACE
  8
ZONE_2
 62
 13
 10
       33.00000
 20
        3.00000
 30
        8.70000
 11
       33.00000
 21
        6.00000
 31
        8.70000
 12
       30.00000
 22
        6.00000
 32
        8.70000
 13
       30.00000
 23
        3.00000
 33
        8.70000
999
ZONE 2:ZN002:WALL002:WIN001:SHADE001
  0
3DFACE
  8
ZONE_2
 62
 13
 10
       49.00000
 20
       15.00000
 30
        8.70000
 11
       46.00000
 21
       15.00000
 31
        8.70000
 12
       46.00000
 22
       18.00000
 32
        8.70000
 13
       49.00000
 23
       18.00000
 33
        8.70000
999
ZONE 2:Mir-ZN002:WALL002:WIN001:SHADE001
  0
3DFACE
  8
ZONE_2
 62
 13
 10
       49.00000
 20
       18.00000
 30
        8.70000
 11
       46.00000
 21
       18.00000
 31
        8.70000
 12
       46.00000
 22
       15.00000
 32
        8.70000
 13
       49.00000
 23
       15.00000
 33
        8.70000
999
ZONE 2:ZN002:WALL002:SHADE002 Left
  0
3DFACE
  8
ZONE_2
 62
 13
 10
       46.00000
 20
       14.90000
 30
        8.10000
 11
       46.00000
 21
       14.90000
 31
        2.90000
 12
       49.00000
 22
       14.90000
 32
        2.90000
 13
       49.00000
 23
       14.90000
 33
        8.10000
999
ZONE 2:Mir-ZN002:WALL002:SHADE002 Left
  0
3DFACE
  8
ZONE_2
 62
 13
 10
       49.00000
 20
       14.90000
 30
        8.10000
 11
       49.00000
 21
       14.90000
 31
        2.90000
 12
       46.00000
 22
       14.90000
 32
        2.90000
 13
       46.00000
 23
       14.90000
 33
        8.10000
999
ZONE 2:ZN002:WALL002:SHADE002 Right
  0
3DFACE
  8
ZONE_2
 62
 13
 10
       46.00000
 20
       18.10000
 30
        8.10000
 11
       46.00000
 21
       18.10000
 31
        2.90000
 12
       49.00000
 22
       18.10000
 32
        2.90000
 13
       49.00000
 23
       18.10000
 33
        8.10000
999
ZONE 2:Mir-ZN002:WALL002:SHADE002 Right
  0
3DFACE
  8
ZONE_2
 62
 13
 10
       49.00000
 20
       18.10000
 30
        8.10000
 11
       49.00000
 21
       18.10000
 31
        2.90000
 12
       46.00000
 22
       18.10000
 32
        2.90000
 13
       46.00000
 23
       18.10000
 33
        8.10000
999
ZONE 3:ZN003:WALL001
  0
3DFACE
  8
ZONE_3
 62
 43
 10
        6.00000
 20
        6.00000
 30
       20.00000
 11
        6.00000
 21
        6.00000
 31
       10.00000
 12
       26.00000
 22
        6.00000
 32
       10.00000
 13
       26.00000
 23
        6.00000
 33
       20.00000
999
ZONE 3:ZN003:WALL001:WIN001
  0
3DFACE
  8
ZONE_3
 62
143
 10
       14.00000
 20
        6.00000
 30
       18.00000
 11
       14.00000
 21
        6.00000
 31
       13.00000
 12
       17.00000
 22
        6.00000
 32
       13.00000
 13
       17.00000
 23
        6.00000
 33
       18.00000
999
ZONE 3:ZN003:WALL002
  0
3DFACE
  8
ZONE_3
 62
 43
 10
       26.00000
 20
       26.00000
 30
       20.00000
 11
       26.00000
 21
       26.00000
 31
       10.00000
 12
        6.00000
 22
       26.00000
 32
       10.00000
 13
        6.00000
 23
       26.00000
 33
       20.00000
999
ZONE 3:ZN003:WALL003
  0
3DFACE
  8
ZONE_3
 62
 43
 10
        6.00000
 20
       26.00000
 30
       20.00000
 11
        6.00000
 21
       26.00000
 31
       10.00000
 12
        6.00000
 22
        6.00000
 32
       10.00000
 13
        6.00000
 23
        6.00000
 33
       20.00000
999
ZONE 3:ZN003:WALL004
  0
3DFACE
  8
ZONE_3
 62
 43
 10
       26.00000
 20
        6.00000
 30
       20.00000
 11
       26.00000
 21
        6.00000
 31
       10.00000
 12
       26.00000
 22
       26.00000
 32
       10.00000
 13
       26.00000
 23
       26.00000
 33
       20.00000
999
ZONE 3:ZN003:WALL004:WIN001
  0
3DFACE
  8
ZONE_3
 62
143
 10
       26.00000
 20
       10.00000
 30
       18.00000
 11
       26.00000
 21
       10.00000
 31
       13.00000
 12
       26.00000
 22
       13.00000
 32
       13.00000
 13
       26.00000
 23
       13.00000
 33
       18.00000
999
ZONE 3:ZN003:FLR001
  0
3DFACE
  8
ZONE_3
 62
  8
 10
       26.00000
 20
        6.00000
 30
       10.00000
 11
        6.00000
 21
        6.00000
 31
       10.00000
 12
        6.00000
 22
       26.00000
 32
       10.00000
 13
       26.00000
 23
       26.00000
 33
       10.00000
999
ZONE 3:ZN003:ROOF001
  0
3DFACE
  8
ZONE_3
 62
 15
 10
        6.00000
 20
       26.00000
 30
       20.00000
 11
        6.00000
 21
        6.00000
 31
       20.00000
 12
       26.00000
 22
        6.00000
 32
       20.00000
 13
       26.00000
 23
       26.00000
 33
       20.00000
999
ZONE 4:ZN004:WALL001
  0
3DFACE
  8
ZONE_4
 62
 43
 10
       26.00000
 20
        6.00000
 30
       20.00000
 11
       26.00000
 21
        6.00000
 31
       10.00000
 12
       46.00000
 22
        6.00000
 32
       10.00000
 13
       46.00000
 23
        6.00000
 33
       20.00000
999
ZONE 4:ZN004:WALL001:WIN001
  0
3DFACE
  8
ZONE_4
 62
143
 10
       34.00000
 20
        6.00000
 30
       18.00000
 11
       34.00000
 21
        6.00000
 31
       13.00000
 12
       37.00000
 22
        6.00000
 32
       13.00000
 13
       37.00000
 23
        6.00000
 33
       18.00000
999
ZONE 4:ZN004:WALL002
  0
3DFACE
  8
ZONE_4
 62
 43
 10
       46.00000
 20
        6.00000
 30
       20.00000
 11
       46.00000
 21
        6.00000
 31
       10.00000
 12
       46.00000
 22
       26.00000
 32
       10.00000
 13
       46.00000
 23
       26.00000
 33
       20.00000
999
ZONE 4:ZN004:WALL003
  0
3DFACE
  8
ZONE_4
 62
 43
 10
       46.00000
 20
       26.00000
 30
       20.00000
 11
       46.00000
 21
       26.00000
 31
       10.00000
 12
       26.00000
 22
       26.00000
 32
       10.00000
 13
       26.00000
 23
       26.00000
 33
       20.00000
999
ZONE 4:ZN004:WALL004
  0
3DFACE
  8
ZONE_4
 62
 43
 10
       26.00000
 20
       26.00000
 30
       20.00000
 11
       26.00000
 21
       26.00000
 31
       10.00000
 12
       26.00000
 22
        6.00000
 32
       10.00000
 13
       26.00000
 23
        6.00000
 33
       20.00000
999
ZONE 4:ZN004:WALL004:WIN001
  0
3DFACE
  8
ZONE_4
 62
143
 10
       26.00000
 20
       13.00000
 30
       18.00000
 11
       26.00000
 21
       13.00000
 31
       13.00000
 12
       26.00000
 22
       10.00000
 32
       13.00000
 13
       26.00000
 23
       10.00000
 33
       18.00000
999
ZONE 4:ZN004:FLR001
  0
3DFACE
  8
ZONE_4
 62
  8
 10
       46.00000
 20
        6.00000
 30
       10.00000
 11
       26.00000
 21
        6.00000
 31
       10.00000
 12
       26.00000
 22
       26.00000
 32
       10.00000
 13
       46.00000
 23
       26.00000
 33
       10.00000
999
ZONE 4:ZN004:ROOF001
  0
3DFACE
  8
ZONE_4
 62
 15
 10
       26.00000
 20
       26.00000
 30
       20.00000
 11
       26.00000
 21
        6.00000
 31
       20.00000
 12
       46.00000
 22
        6.00000
 32
       20.00000
 13
       46.00000
 23
       26.00000
 33
       20.00000
  0
ENDSEC
  0
EOF
